PathFileType	3	(X/Y/Z)	D:\minhoCalibration\240510\subject2_KPNP\preferred\preferred14.trc
DataRate	CameraRate	NumFrames	NumMarkers	Units	OrigDataRate	OrigDataStartFrame	OrigNumFrames
200.0	200.0	24	10	mm	200.0	406	191	
Frame#	Time	Left_Ankle_Outer1			Left_Ankle_Inner1			Left_Knee_Outer1			Left_Knee_Inner1			Left_Wrist1			Right_Wrist1			Right_Knee_Inner1			Right_Knee_Outer1			Right_Ankle_Inner1			Right_Ankle_Outer1			
		X1	Y1	Z1	X2	Y2	Z2	X3	Y3	Z3	X4	Y4	Z4	X5	Y5	Z5	X6	Y6	Z6	X7	Y7	Z7	X8	Y8	Z8	X9	Y9	Z9	X10	Y10	Z10	
406	2.02	-645.1991	132.77644	-728.47382	-634.02106	137.1703	-674.00165	-490.87283	548.55054	-797.75116	-478.94012	528.11194	-701.68396	-599.63647	955.50244	-838.64392	-545.76727	1194.4873	-587.30383	-329.19519	1027.0205	-241.03415	-355.28015	1111.718	-243.11633	-381.21399	984.58771	178.17218	-381.2886	1085.621	185.61726
407	2.025	-645.64728	133.33743	-726.24585	-633.91937	137.94212	-671.23938	-489.75076	549.57684	-795.76562	-480.65085	528.7879	-698.7005	-598.27173	954.77826	-836.62494	-547.26489	1195.7537	-586.78101	-327.65927	1030.0809	-241.36026	-359.31436	1112.6531	-240.54216	-380.9632	979.01471	178.15172	-384.18585	1078.8999	187.94237
408	2.03	-646.02832	133.52574	-723.77246	-633.93481	138.36314	-668.57214	-489.22168	550.09564	-793.53174	-482.3299	529.3103	-695.78888	-596.69617	954.5379	-835.29236	-548.66656	1197.0634	-586.677	-327.05014	1031.7299	-239.54747	-363.47049	1112.8505	-237.87242	-381.21301	972.03857	178.36984	-385.94998	1072.5503	189.64003
409	2.035	-646.45673	133.73071	-721.38495	-633.94763	138.06184	-666.40942	-488.65201	550.39435	-791.79163	-483.94583	529.63269	-693.09845	-594.823	954.45367	-834.88501	-550.11725	1198.3192	-586.57385	-327.30316	1031.5552	-236.66064	-367.32376	1112.2659	-234.89754	-381.87222	966.12158	178.36803	-387.349	1066.0255	191.34419
410	2.04	-647.0144	133.66939	-719.00964	-634.48059	137.0844	-665.00818	-488.97861	550.03827	-789.53577	-485.31461	529.8175	-690.73535	-592.72675	954.74493	-834.63623	-551.57538	1199.2976	-586.38971	-328.07672	1030.0857	-233.32472	-370.06491	1110.969	-231.81433	-382.84598	959.47119	178.62038	-388.50226	1059.0737	193.05591
411	2.045	-647.46802	133.48338	-716.85461	-634.51935	137.84506	-661.98108	-488.79257	549.76837	-787.95966	-486.46942	529.784	-688.67047	-590.57208	955.25702	-834.53278	-553.07837	1199.7949	-586.03558	-330.14325	1027.4385	-229.92064	-372.07144	1108.6674	-228.51685	-383.18634	952.03253	178.78987	-389.51376	1051.3601	194.13757
412	2.05	-647.94507	133.27478	-715.08716	-635.26654	136.89914	-660.39984	-488.69824	549.17175	-786.47968	-487.28195	529.62561	-687.0647	-588.32172	956.0152	-834.7616	-554.63751	1199.8995	-585.57788	-333.37006	1024.21	-226.83252	-373.44287	1105.9821	-225.17372	-383.00031	944.43616	178.65767	-390.88419	1043.1827	195.24542
413	2.055	-648.31201	132.79013	-713.51312	-635.15656	137.11261	-658.35101	-488.99646	548.16949	-785.05792	-487.80704	529.25848	-685.86829	-585.97046	956.8952	-835.11945	-556.3277	1199.592	-584.94678	-337.07654	1020.7113	-224.60294	-374.77979	1103.0404	-221.80978	-383.07071	936.20917	178.61862	-392.32596	1034.7863	196.62622
414	2.06	-648.64465	132.33643	-712.47076	-635.60931	135.97525	-657.7998	-488.80869	547.7157	-783.95782	-488.04974	528.75073	-685.15564	-583.81354	957.77466	-835.0658	-558.05109	1199.03	-584.10498	-340.8284	1017.1679	-223.10579	-376.228	1099.9681	-218.57388	-383.26892	927.55798	178.48964	-393.44922	1025.7898	197.68172
415	2.065	-648.97369	131.79543	-711.87885	-636.47369	135.72147	-656.1778	-489.52866	546.57355	-782.9201	-488.11612	528.09247	-684.75854	-580.93488	959.0307	-836.27118	-559.70258	1198.1816	-583.12207	-344.11508	1013.5173	-222.09846	-377.96805	1096.7388	-215.6059	-383.55203	918.435	178.03606	-394.95432	1016.3616	198.69179
416	2.07	-649.3028	131.17657	-711.69696	-636.52612	134.94302	-656.58514	-490.20456	545.47968	-782.2572	-488.13449	527.27454	-684.5824	-578.34656	960.16553	-836.97681	-561.30872	1197.1758	-582.06989	-348.17929	1009.6193	-220.912	-379.92123	1093.3904	-213.06001	-383.74786	908.77051	177.16801	-396.39487	1006.2896	199.38535
417	2.075	-649.67981	130.57565	-712.0119	-637.16864	134.36716	-656.62744	-491.02524	544.6922	-781.57086	-488.16968	526.36993	-684.5589	-575.5127	961.37695	-837.79242	-563.14313	1195.9762	-580.9184	-351.76498	1005.7428	-219.84044	-382.07727	1089.9138	-211.03745	-383.94235	898.48547	175.9603	-398.32611	995.34521	199.87233
418	2.08	-650.04327	129.86554	-712.6131	-637.66095	132.5475	-658.56854	-492.017	544.01923	-780.95166	-488.30374	525.44336	-684.65564	-572.76019	962.56879	-838.77704	-565.21936	1194.6342	-579.84222	-355.17734	1001.8054	-218.91338	-384.53531	1086.3765	-209.48061	-384.04028	887.5813	174.28174	-400.63229	983.86517	200.2872
419	2.085	-650.24005	129.20718	-713.41138	-638.83246	132.24261	-658.44043	-493.65329	542.43457	-780.48456	-488.62411	524.42151	-684.75085	-570.04614	963.6424	-839.66565	-567.56183	1193.0803	-578.90344	-358.5199	997.78229	-218.15114	-387.48975	1082.7129	-208.38237	-384.20642	877.09845	172.5441	-403.2785	971.78864	200.347
420	2.09	-650.44788	128.50423	-714.45038	-639.76172	131.64642	-659.02087	-494.42395	541.64673	-780.50476	-489.1011	523.37195	-684.79822	-567.2876	964.53528	-840.48389	-570.0675	1191.8014	-577.5321	-361.51968	993.84711	-217.51895	-390.96921	1078.8821	-207.59279	-383.48587	866.49146	169.82796	-406.08746	959.18878	200.22023
421	2.095	-650.7204	127.98253	-715.65448	-640.40588	131.04926	-660.25897	-495.55185	540.47357	-780.20154	-489.77585	522.39996	-684.66376	-564.55206	965.2171	-841.23083	-572.46222	1190.4694	-576.10156	-364.08426	989.94336	-217.07368	-395.0311	1074.8711	-206.93379	-383.80219	854.65216	167.11003	-408.88757	945.75836	199.70232
422	2.1	-650.8183	127.21835	-716.6936	-640.69629	129.82588	-662.25507	-496.73132	539.20868	-779.74518	-490.60687	521.40369	-684.3855	-562.05554	965.73273	-841.70062	-574.53943	1189.0479	-574.67682	-365.87335	986.12439	-217.03215	-399.48813	1070.6017	-206.27921	-384.29709	843.07111	164.13393	-412.21951	932.74042	198.98454
423	2.105	-651.12506	126.66891	-717.78876	-642.22589	129.90755	-661.39221	-497.18939	538.25964	-779.44946	-491.64844	520.42676	-683.84595	-559.63385	966.07196	-841.94678	-576.64514	1187.4393	-573.43506	-368.66351	982.43945	-216.67776	-403.95908	1066.031	-205.61617	-385.40207	831.43677	160.97293	-415.68442	919.33148	197.81842
424	2.11	-651.27893	125.94559	-718.698	-642.10547	128.31268	-664.04895	-498.19016	536.6167	-778.61145	-492.8988	519.56519	-683.08453	-557.39984	966.32806	-842.11938	-579.23303	1185.6591	-572.5105	-370.93945	978.67865	-216.78568	-408.30988	1061.2096	-204.79381	-387.08438	819.50616	157.75536	-419.3587	905.84631	196.21075
425	2.115	-651.50537	125.25951	-719.49982	-643.05835	128.35661	-663.24658	-497.43628	536.27118	-778.22485	-494.10516	518.93823	-682.26086	-555.33118	966.3631	-842.17035	-581.60492	1184.0798	-571.69977	-372.73077	974.57684	-216.8913	-412.30182	1056.0807	-203.89377	-389.08914	807.22919	154.16673	-423.07346	891.89978	193.93816
426	2.12	-651.69684	124.55453	-720.06885	-643.69379	127.76938	-663.67065	-497.24667	535.46942	-777.16534	-495.57898	518.34973	-681.17712	-553.26593	966.46271	-842.24158	-583.86969	1182.5837	-571.10089	-373.11395	970.78839	-217.71994	-415.9624	1050.688	-202.90706	-391.40091	794.76825	150.02235	-427.52866	878.01941	191.53949
427	2.125	-651.91656	123.80795	-720.46674	-644.54871	126.17543	-664.83167	-496.28299	534.79675	-776.45551	-497.13803	517.8642	-679.94409	-551.61188	966.26245	-841.58667	-585.8396	1181.1278	-570.57349	-376.03537	965.57996	-217.68135	-419.20013	1044.9999	-202.04637	-394.37094	781.93286	146.20683	-432.05676	863.78931	188.47623
428	2.13	-651.95667	122.99459	-720.64441	-645.08148	125.94719	-664.36371	-495.81287	534.08203	-774.81567	-498.70752	517.48517	-678.63641	-549.91986	966.03571	-841.36786	-587.91156	1179.7295	-570.46918	-377.77789	960.37646	-218.16357	-422.15994	1039.0408	-201.28783	-398.84052	768.90692	143.59456	-437.06198	849.61591	185.26982
429	2.135	-652.22333	122.19968	-720.78528	-645.9201	124.42214	-665.25439	-495.02432	533.44226	-773.46448	-500.31549	517.17932	-677.27612	-548.34778	965.76569	-841.18982	-590.02594	1178.5389	-570.50153	-380.48743	954.50409	-218.38704	-424.87241	1032.8734	-200.79352	-403.42685	755.3161	139.81711	-442.35138	835.02625	181.48717
